<svg xmlns="http://www.w3.org/2000/svg" width="18" height="18" viewBox="0 0 24 24" fill="currentColor">
  <path d="M16.365 1.43c0 1.14-.415 2.2-1.219 3.063-.977 1.064-2.57 1.874-4.05 1.764-.114-1.12.436-2.28 1.198-3.05.97-.976 2.6-1.67 4.07-1.777zm4.48 16.11c-.334.77-.73 1.49-1.184 2.15-.622.9-1.13 1.523-1.525 1.867-.61.56-1.266.847-1.97.86-.504.01-1.113-.145-1.83-.467-.718-.32-1.377-.48-1.978-.48-.62 0-1.29.16-2.01.48-.72.322-1.31.488-1.77.5-.682.027-1.356-.263-2.02-.87-.415-.36-.943-1.006-1.585-1.94-.678-.99-1.236-2.135-1.677-3.434-.47-1.41-.706-2.772-.706-4.09 0-1.51.323-2.81.968-3.9.505-.87 1.177-1.563 2.016-2.074.84-.51 1.747-.77 2.72-.783.534-.01 1.233.17 2.096.538.862.37 1.418.556 1.667.556.182 0 .77-.21 1.76-.63.944-.4 1.74-.566 2.386-.5 1.764.142 3.09.84 3.972 2.094-1.576.955-2.362 2.294-2.36 4.015.003 1.338.498 2.443 1.483 3.315.44.39.934.687 1.483.89-.12.345-.254.68-.4 1.005z"/>
</svg>
