<svg xmlns="http://www.w3.org/2000/svg" width="18" height="18" viewBox="0 0 48 48">
  <path fill="#FFC107" d="M43.61 20.083H42V20H24v8h11.303C33.582 32.91 29.197 36 24 36c-6.627 0-12-5.373-12-12s5.373-12 12-12c3.059 0 5.842 1.153 7.961 3.039l5.657-5.657C33.641 6.053 29.04 4 24 4 12.955 4 4 12.955 4 24s8.955 20 20 20 20-8.955 20-20c0-1.341-.138-2.651-.39-3.917z"/>
  <path fill="#FF3D00" d="M6.306 14.691l6.571 4.818C14.431 16.115 18.833 12 24 12c3.059 0 5.842 1.153 7.961 3.039l5.657-5.657C33.641 6.053 29.04 4 24 4 16.318 4 9.656 8.347 6.306 14.691z"/>
  <path fill="#4CAF50" d="M24 44c5.138 0 9.778-1.977 13.293-5.193l-6.132-5.187C29.087 35.091 26.676 36 24 36c-5.176 0-9.552-3.08-11.291-7.478l-6.54 5.036C9.48 39.556 16.188 44 24 44z"/>
  <path fill="#1976D2" d="M43.61 20.083H42V20H24v8h11.303c-1.018 2.91-3.403 5.201-6.142 6.62.004-.003 13.839-10.02 14.449-14.537z"/>
</svg>
